<svg width="800" height="800" viewBox="0 0 32 32" xmlns="http://www.w3.org/2000/svg" fill="currentColor" ><path d="M20.411 5.79c.98-1.14 1.576-2.634 1.576-4.267 0-.183-.007-.364-.022-.542l.002.023c-1.769.18-3.314 1.019-4.407 2.264l-.007.008c-.997 1.107-1.607 2.579-1.607 4.194 0 .157.006.314.017.468l-.001-.021h.058c1.774 0 3.356-.826 4.381-2.115l.009-.011zM16.19 9.622c-1.185 0-3.018-1.347-4.949-1.3-2.661.073-4.959 1.558-6.18 3.73l-.019.037C2.396 16.681 4.36 23.464 6.94 27.197c1.266 1.817 2.759 3.861 4.739 3.798 1.899-.081 2.612-1.233 4.917-1.233 2.288 0 2.937 1.233 4.949 1.185 2.046-.032 3.344-1.849 4.594-3.684.848-1.227 1.554-2.641 2.044-4.152l.032-.115c-2.38-1.033-4.016-3.359-4.024-6.068v-.001c.023-2.406 1.304-4.507 3.216-5.68l.029-.017c-1.24-1.741-3.221-2.884-5.473-2.969h-.013c-2.499-.195-4.592 1.362-5.761 1.362z"/></svg>