<svg version="1.1" id="Icons" xmlns="http://www.w3.org/2000/svg" viewBox="0 0 32 32" xml:space="preserve" fill="currentColor"><path d="m29.5 9.1-13-7c-.3-.2-.7-.2-.9 0l-13 7c-.4.2-.6.5-.6.9v3c0 .6.4 1 1 1h26c.6 0 1-.4 1-1v-3c0-.4-.2-.7-.5-.9zM17 24c.6 0 1-.4 1-1v-7c0-.6-.4-1-1-1h-2c-.6 0-1 .4-1 1v7c0 .6.4 1 1 1h2zM25 24c.6 0 1-.4 1-1v-7c0-.6-.4-1-1-1h-2c-.6 0-1 .4-1 1v7c0 .6.4 1 1 1h2zM9 24c.6 0 1-.4 1-1v-7c0-.6-.4-1-1-1H7c-.6 0-1 .4-1 1v7c0 .6.4 1 1 1h2zM29 25H3c-.6 0-1 .4-1 1v3c0 .6.4 1 1 1h26c.6 0 1-.4 1-1v-3c0-.6-.4-1-1-1z"/></svg>