<svg width="800" height="800" viewBox="-0.5 0 25 25" fill="none" xmlns="http://www.w3.org/2000/svg"><path d="M12.8702 16.97v1.1001c0 .1777-.0707.348-.1963.4736-.1257.1257-.2961.1963-.4738.1963-.1777 0-.3481-.0706-.4737-.1963-.1257-.1256-.1962-.2959-.1962-.4736v-1.1302c-.4435-.0731-.8677-.2348-1.2474-.4753-.37964-.2405-.70705-.5549-.96267-.9246-.1025-.112-.15952-.2583-.15997-.4101-.0001-.0866.01737-.1723.05139-.252.03402-.0796.0839-.1516.14654-.2114.06265-.0598.13675-.1064.2179-.1367.08114-.0304.16761-.0439.25415-.0398.08588-.0005.17076.0181.24856.0544.0779.0363.1467.0894.2015.1556.3198.4178.754.7338 1.25.9099v-2.5398c-1.33-.53-2.00005-1.3001-2.00005-2.3101.02004-.5407.23255-1.05647.59925-1.45434.3667-.39786.8635-.65159 1.4008-.71557V7.47998c0-.17769.0705-.34823.1962-.47388.1256-.12565.296-.19604.4737-.19604.1777 0 .3481.07039.4738.19604.1256.12565.1963.29619.1963.47388v1.1001c.3737.05759.7319.18984 1.0532.38916.3213.19932.5992.46153.8168.77075.0882.11569.1403.25472.1499.39991.0027.0857-.0118.1712-.0428.2512-.031.08-.0777.1528-.1374.2144-.0597.0615-.1312.1106-.2101.144-.079.0334-.1639.0506-.2497.0505-.0894-.0011-.1776-.0213-.2586-.0593-.0811-.0379-.1531-.0927-.2113-.1606-.2385-.2979-.5528-.5261-.91-.66018v2.24998l.25.1001c1.27.49 2.06 1.2099 2.06 2.3599-.0172.61-.2653 1.1909-.694 1.6252-.4287.4343-1.0063.6898-1.616.7149Zm-1.34-5.3799V9.96997c-.1614.05853-.3004.16633-.3973.30813-.0968.1417-.1467.3103-.1427.4819.0082.17.0628.3345.1581.4756.0952.1411.2273.2533.3819.3245v.03Zm2.2 3.0698c0-.49-.34-.78-.86-1v2c.2455-.0345.4694-.159.6283-.3494.1589-.1903.2415-.4329.2317-.6806v.03Z" fill="currentColor"/><path d="M12.58 3.96997H6c-1.06087 0-2.07822.42149-2.82837 1.17163C2.42149 5.89175 2 6.9091 2 7.96997V17.97c0 1.0608.42149 2.0782 1.17163 2.8283C3.92178 21.5485 4.93913 21.97 6 21.97h12c1.0609 0 2.0783-.4215 2.8284-1.1717C21.5786 20.0482 22 19.0308 22 17.97v-6.0701M16.3398 8.57992l5.66-5.66M17.4805 2.91992h4.52v4.53" stroke="currentColor" stroke-width="1.5" stroke-linecap="round" stroke-linejoin="round"/></svg>